<?xml version="1.0" encoding="UTF-8"?>
<!DOCTYPE svg PUBLIC "-//W3C//DTD SVG 1.1//EN" "http://www.w3.org/Graphics/SVG/1.1/DTD/svg11.dtd">
<!-- Creator: CorelDRAW -->
<svg xmlns="http://www.w3.org/2000/svg" xml:space="preserve" width="101.31mm" height="16.75mm" version="1.1" style="shape-rendering:geometricPrecision; text-rendering:geometricPrecision; image-rendering:optimizeQuality; fill-rule:evenodd; clip-rule:evenodd"
viewBox="0 0 3003.23 496.54"
 xmlns:xlink="http://www.w3.org/1999/xlink"
 xmlns:xodm="http://www.corel.com/coreldraw/odm/2003">
 <defs>
  <style type="text/css">
   <![CDATA[
    .fil0 {fill:#FF99CC}
    .fil1 {fill:#FF99CC;fill-rule:nonzero}
   ]]>
  </style>
 </defs>
 <g id="Layer_x0020_1">
  <metadata id="CorelCorpID_0Corel-Layer"/>
  <g id="_2474324464800">
   <path class="fil0" d="M239.57 0c139.04,0 270.92,142.26 233.07,276.64l-120.94 -112.82c-23.77,-35.4 -64.59,-55.66 -112.13,-55.66 -47.54,0 -88.36,20.26 -112.13,55.66l-120.46 115.53c-39.01,-135.48 91.95,-279.35 232.59,-279.35zm-0.78 418.84l-47.65 47.65c30.82,5.91 62.16,6.99 94.36,0l-46.71 -47.65zm-154.6 -5.1l155.38 -155.25 238.05 238.05 -114.75 0 -124.08 -119.02 -82.14 82.14c-28.71,-12.63 -53.03,-27.83 -72.45,-45.92zm369.87 -91.79l-86.47 -84.8c1.03,28.11 -7.56,54.3 -26.45,78.43l75.19 75.19c22.84,-21.37 33.82,-51.1 37.74,-68.82zm-438.56 3.07l94 -87.86c-1.03,28.11 7.56,54.3 26.45,78.43l-75.18 75.19c-21.88,-20.61 -40.16,-47.29 -45.26,-65.75z"/>
   <path class="fil1" d="M775.5 459.02c-14.75,4.27 -33.77,8.25 -57.06,11.93 -23.29,3.69 -47.74,5.53 -73.36,5.53 -26.01,0 -47.64,-3.5 -64.91,-10.48 -17.27,-6.99 -30.95,-16.79 -41.05,-29.4 -10.09,-12.62 -17.27,-27.65 -21.54,-45.12 -4.27,-17.47 -6.4,-36.68 -6.4,-57.64l0 -170.58 86.75 0 0 160.1c0,27.95 3.69,48.13 11.06,60.55 7.38,12.42 21.15,18.63 41.34,18.63 6.21,0 12.81,-0.29 19.8,-0.87 6.99,-0.58 13.19,-1.26 18.63,-2.04l0 -236.37 86.75 0 0 295.75zm126.75 10.48l-86.75 0 0 -306.23 86.75 0 0 306.23zm8.15 -394.73c0,15.91 -5.14,28.43 -15.43,37.55 -10.29,9.12 -22.41,13.68 -36.39,13.68 -13.97,0 -26.1,-4.56 -36.39,-13.68 -10.28,-9.12 -15.43,-21.64 -15.43,-37.55 0,-15.92 5.14,-28.43 15.43,-37.55 10.29,-9.12 22.42,-13.68 36.39,-13.68 13.97,0 26.1,4.56 36.39,13.68 10.28,9.12 15.43,21.64 15.43,37.55zm17.3 241.61c0,-22.12 3.59,-42.99 10.77,-62.59 7.18,-19.6 17.56,-36.68 31.15,-51.23 13.59,-14.55 30.08,-26.1 49.49,-34.64 19.41,-8.54 41.53,-12.81 66.37,-12.81 16.3,0 31.24,1.46 44.83,4.37 13.58,2.91 26.78,7.08 39.59,12.52l-18.05 69.28c-8.15,-3.11 -17.08,-5.82 -26.78,-8.15 -9.7,-2.33 -20.57,-3.49 -32.6,-3.49 -25.62,0 -44.73,7.96 -57.35,23.87 -12.61,15.91 -18.92,36.87 -18.92,62.88 0,27.56 5.92,48.9 17.76,64.04 11.84,15.14 32.51,22.71 62,22.71 10.48,0 21.73,-0.97 33.77,-2.91 12.03,-1.94 23.1,-5.05 33.19,-9.31l12.23 71.03c-10.09,4.27 -22.7,7.96 -37.84,11.06 -15.14,3.11 -31.83,4.66 -50.07,4.66 -27.95,0 -52.01,-4.17 -72.19,-12.52 -20.18,-8.34 -36.77,-19.7 -49.78,-34.06 -13,-14.36 -22.51,-31.34 -28.53,-50.94 -6.01,-19.6 -9.02,-40.85 -9.02,-63.75zm350.9 -43.18c8.54,-9.22 17.37,-18.92 26.49,-28.92 9.12,-9.99 17.95,-19.99 26.39,-29.79 8.54,-9.9 16.59,-19.22 24.16,-28.04 7.57,-8.93 14.07,-16.59 19.51,-23.19l103.15 0c-20.57,23.58 -40.66,46.19 -60.26,67.63 -19.6,21.54 -41.05,43.67 -64.33,66.57 11.64,10.48 23.68,23 36.09,37.65 12.42,14.56 24.45,29.6 36.1,45.12 11.64,15.62 22.32,31.15 32.02,46.67 9.7,15.53 17.85,29.79 24.45,42.6l-99.75 0c-6.21,-10.09 -13.29,-21.35 -21.25,-33.57 -7.86,-12.23 -16.3,-24.45 -25.23,-36.77 -8.93,-12.23 -18.34,-23.97 -28.24,-35.32 -9.8,-11.26 -19.6,-20.77 -29.3,-28.53l0 134.2 -86.75 0 0 -437.81 86.75 -13.97 0 255.49zm332.85 -211.82c60.55,0 106.93,10.77 139.15,32.31 32.21,21.54 48.32,55.02 48.32,100.43 0,28.33 -6.5,51.33 -19.51,68.99 -13,17.66 -31.73,31.54 -56.18,41.63 8.15,10.09 16.69,21.64 25.62,34.64 8.93,13 17.76,26.59 26.49,40.75 8.73,14.17 17.17,28.92 25.32,44.25 8.15,15.33 15.72,30.37 22.7,45.12l-101.49 0c-7.47,-13.2 -14.94,-26.59 -22.51,-40.17 -7.67,-13.59 -15.43,-26.78 -23.39,-39.59 -8.05,-12.81 -15.91,-24.94 -23.67,-36.39 -7.76,-11.45 -15.62,-21.83 -23.39,-31.15l-44.83 0 0 147.29 -90.82 0 0 -397.64c19.79,-3.88 40.27,-6.6 61.42,-8.15 21.15,-1.55 40.08,-2.33 56.77,-2.33zm5.24 77.43c-6.6,0 -12.52,0.2 -17.76,0.58 -5.24,0.39 -10.19,0.78 -14.85,1.17l0 109.45 25.62 0c34.16,0 58.61,-4.27 73.36,-12.81 14.75,-8.54 22.12,-23.09 22.12,-43.67 0,-19.79 -7.47,-33.86 -22.41,-42.21 -14.94,-8.34 -36.97,-12.52 -66.08,-12.52zm188.46 179.9c0,-27.17 4.17,-50.94 12.52,-71.32 8.34,-20.38 19.31,-37.36 32.9,-50.94 13.58,-13.58 29.21,-23.87 46.87,-30.86 17.66,-6.98 35.8,-10.48 54.44,-10.48 43.47,0 77.82,13.3 103.05,39.88 25.23,26.59 37.84,65.69 37.84,117.31 0,5.05 -0.19,10.58 -0.58,16.59 -0.39,6.02 -0.78,11.35 -1.17,16.01l-196.78 0c1.94,17.85 10.29,32.02 25.03,42.5 14.75,10.48 34.54,15.72 59.39,15.72 15.91,0 31.54,-1.46 46.87,-4.37 15.33,-2.91 27.85,-6.5 37.55,-10.77l11.64 70.44c-4.66,2.33 -10.87,4.66 -18.63,6.99 -7.76,2.33 -16.4,4.37 -25.91,6.11 -9.51,1.75 -19.7,3.2 -30.57,4.37 -10.87,1.17 -21.73,1.75 -32.6,1.75 -27.56,0 -51.52,-4.08 -71.9,-12.23 -20.38,-8.15 -37.26,-19.31 -50.65,-33.48 -13.39,-14.17 -23.29,-30.95 -29.69,-50.36 -6.4,-19.4 -9.6,-40.37 -9.6,-62.88zm203.77 -33.18c-0.39,-7.38 -1.65,-14.56 -3.78,-21.54 -2.13,-6.99 -5.43,-13.19 -9.9,-18.63 -4.46,-5.43 -10.09,-9.9 -16.88,-13.39 -6.79,-3.49 -15.23,-5.24 -25.33,-5.24 -9.7,0 -18.05,1.65 -25.03,4.95 -6.98,3.3 -12.81,7.67 -17.47,13.1 -4.66,5.43 -8.25,11.74 -10.77,18.92 -2.52,7.18 -4.37,14.46 -5.53,21.83l114.69 0zm197.2 121.68c15.91,0 27.17,-1.55 33.76,-4.66 6.6,-3.1 9.9,-9.12 9.9,-18.05 0,-6.99 -4.27,-13.1 -12.81,-18.34 -8.54,-5.24 -21.54,-11.16 -39.01,-17.76 -13.59,-5.05 -25.91,-10.29 -36.97,-15.72 -11.06,-5.43 -20.48,-11.93 -28.24,-19.5 -7.76,-7.57 -13.78,-16.59 -18.05,-27.07 -4.27,-10.48 -6.4,-23.09 -6.4,-37.84 0,-28.72 10.67,-51.43 32.02,-68.12 21.35,-16.69 50.65,-25.03 87.91,-25.03 18.63,0 36.48,1.65 53.56,4.95 17.08,3.3 30.66,6.89 40.75,10.77l-15.14 67.53c-10.09,-3.5 -21.06,-6.6 -32.89,-9.32 -11.84,-2.72 -25.13,-4.07 -39.88,-4.07 -27.17,0 -40.75,7.57 -40.75,22.7 0,3.5 0.58,6.6 1.75,9.31 1.17,2.72 3.5,5.34 6.99,7.86 3.5,2.52 8.25,5.24 14.26,8.15 6.01,3.01 13.68,6.21 22.99,9.71 19.02,7.08 34.74,13.97 47.16,20.86 12.42,6.79 22.22,14.26 29.4,22.12 7.18,7.96 12.23,16.79 15.14,26.49 2.91,9.7 4.37,20.86 4.37,33.67 0,30.18 -11.35,53.08 -34.06,68.6 -22.71,15.43 -54.82,23.19 -96.35,23.19 -27.17,0 -49.78,-2.33 -67.83,-6.99 -18.05,-4.66 -30.57,-8.54 -37.55,-11.64l14.56 -70.45c14.75,5.82 29.89,10.38 45.41,13.68 15.52,3.3 30.86,4.95 46,4.95zm414.36 51.81c-14.75,4.27 -33.77,8.25 -57.06,11.93 -23.29,3.69 -47.74,5.53 -73.36,5.53 -26.01,0 -47.64,-3.5 -64.91,-10.48 -17.27,-6.99 -30.95,-16.79 -41.05,-29.4 -10.09,-12.62 -17.27,-27.65 -21.54,-45.12 -4.27,-17.47 -6.4,-36.68 -6.4,-57.64l0 -170.58 86.75 0 0 160.1c0,27.95 3.69,48.13 11.06,60.55 7.38,12.42 21.15,18.63 41.34,18.63 6.21,0 12.81,-0.29 19.8,-0.87 6.99,-0.58 13.19,-1.26 18.63,-2.04l0 -236.37 86.75 0 0 295.75zm162.27 16.3c-25.23,-0.39 -45.7,-3.1 -61.42,-8.15 -15.72,-5.05 -28.14,-12.13 -37.26,-21.25 -9.12,-9.12 -15.33,-20.18 -18.63,-33.19 -3.3,-13 -4.95,-27.65 -4.95,-43.96l0 -337.09 86.75 -13.97 0 333.6c0,7.76 0.58,14.75 1.75,20.96 1.17,6.21 3.4,11.45 6.69,15.72 3.3,4.27 8.05,7.76 14.26,10.48 6.21,2.72 14.56,4.46 25.03,5.24l-12.23 71.61zm17.3 -388.32l86.75 -13.97 0 90.24 104.21 0 0 72.19 -104.21 0 0 107.71c0,18.24 3.2,32.8 9.6,43.67 6.41,10.87 19.31,16.3 38.72,16.3 9.31,0 18.92,-0.87 28.82,-2.62 9.9,-1.75 18.92,-4.17 27.07,-7.28l12.23 67.53c-10.48,4.27 -22.12,7.96 -34.93,11.06 -12.81,3.1 -28.53,4.66 -47.16,4.66 -23.68,0 -43.28,-3.2 -58.8,-9.61 -15.52,-6.4 -27.95,-15.33 -37.26,-26.78 -9.32,-11.45 -15.82,-25.32 -19.5,-41.63 -3.69,-16.3 -5.53,-34.35 -5.53,-54.14l0 -257.33z"/>
  </g>
 </g>
</svg>
